<svg width="386" height="385" viewBox="0 0 386 385" fill="none" xmlns="http://www.w3.org/2000/svg">
<g clip-path="url(#clip0_1_467)">
<path d="M373.369 204.707H356.617L358.133 207.926C360.88 213.76 362.792 219.94 363.816 226.297L364.201 228.683L366.555 228.137C366.849 228.069 367.1 228.037 367.347 228.037H373.368C374.82 228.037 376.002 226.856 376.002 225.403V207.341C376.003 205.888 374.82 204.707 373.369 204.707Z" fill="#736F7B"/>
<path d="M295.098 167.829C317.579 167.829 338.805 178.815 351.877 197.216L352.814 198.534L354.364 198.071C354.673 197.979 354.99 197.932 355.305 197.932H369.981V171.862C369.981 168.113 368.961 164.433 367.033 161.219L363.874 155.947L362.214 156.413C361.911 156.498 361.62 156.539 361.326 156.539H295.098C286.591 156.539 279.67 149.618 279.67 141.111V123.05C279.67 121.183 281.19 119.663 283.057 119.663H342.648L339.621 115.974C335.718 111.216 329.731 108.374 323.606 108.374H271.015C266.243 108.374 262.36 112.257 262.36 117.029V175.926L265.58 174.41C274.857 170.044 284.788 167.829 295.098 167.829Z" fill="#FFC061"/>
<path d="M286.444 141.112C286.444 145.884 290.327 149.768 295.098 149.768H360.158L345.812 125.845L344.152 126.311C343.849 126.396 343.558 126.437 343.265 126.437H286.444V141.112Z" fill="#504B5A"/>
<path d="M295.099 174.603C260.448 174.603 232.257 202.793 232.257 237.444C232.257 272.095 260.448 300.285 295.099 300.285C329.749 300.285 357.94 272.095 357.94 237.444C357.94 202.793 329.749 174.603 295.099 174.603ZM295.099 282.977C269.992 282.977 249.567 262.551 249.567 237.445C249.567 212.338 269.992 191.913 295.099 191.913C320.205 191.913 340.63 212.338 340.63 237.445C340.63 262.551 320.205 282.977 295.099 282.977Z" fill="#625D6B"/>
<path d="M295.099 198.686C273.727 198.686 256.34 216.073 256.34 237.445C256.34 258.817 273.727 276.204 295.099 276.204C316.47 276.204 333.857 258.817 333.857 237.445C333.857 216.073 316.47 198.686 295.099 198.686ZM316.548 237.444C316.548 249.272 306.926 258.894 295.099 258.894C283.271 258.894 273.649 249.272 273.649 237.444C273.649 225.617 283.271 215.995 295.099 215.995C296.482 215.995 297.67 216.831 298.195 218.022C307.008 219.079 314.036 226.015 315.233 234.785C316.028 235.406 316.548 236.361 316.548 237.444Z" fill="#FFC061"/>
<path d="M254.871 180.666L256.19 179.729L255.726 178.179C255.634 177.87 255.587 177.553 255.587 177.238V162.562H229.127L215.229 215.854L217.943 216.044C220.481 216.221 222.961 217.045 225.116 218.425L227.625 220.032L228.493 217.182C232.955 202.544 242.322 189.576 254.871 180.666Z" fill="#504B5A"/>
<path d="M67.2235 110.153C67.6103 108.661 68.9578 107.619 70.5006 107.619C70.7875 107.619 71.076 107.656 71.3531 107.728C72.229 107.958 72.9643 108.514 73.421 109.296C73.8777 110.075 74.0031 110.985 73.7733 111.861L69.425 128.539L83.6295 139.587L91.3068 110.152C91.6936 108.66 93.0411 107.618 94.584 107.618C94.8709 107.618 95.1593 107.655 95.4365 107.727C96.3123 107.957 97.0476 108.513 97.5043 109.295C97.961 110.074 98.0864 110.984 97.8566 111.86L90.0058 141.969C89.9728 142.098 89.9157 142.217 89.8654 142.338L89.2051 143.928L103.649 155.156L115.39 110.15C115.777 108.659 117.124 107.617 118.667 107.617C118.954 107.617 119.243 107.654 119.52 107.726C120.396 107.956 121.131 108.511 121.588 109.293C122.045 110.073 122.171 110.983 121.941 111.858L109.472 159.679L123.669 170.728L139.474 110.15C139.861 108.658 141.209 107.616 142.751 107.616C143.038 107.616 143.327 107.653 143.604 107.725C144.48 107.955 145.215 108.511 145.672 109.293C146.129 110.072 146.255 110.982 146.025 111.858L129.492 175.25L143.689 186.299L163.558 110.15C163.945 108.659 165.293 107.617 166.835 107.617C167.122 107.617 167.411 107.654 167.688 107.726C168.565 107.956 169.299 108.511 169.757 109.293C170.213 110.073 170.339 110.983 170.109 111.858L149.51 190.824L163.707 201.873L187.64 110.153C188.027 108.661 189.374 107.619 190.917 107.619C191.204 107.619 191.493 107.656 191.77 107.728C192.646 107.958 193.381 108.514 193.838 109.296C194.295 110.075 194.421 110.985 194.191 111.861L169.529 206.396L183.735 217.443L211.724 110.153C212.111 108.661 213.459 107.619 215.001 107.619C215.288 107.619 215.577 107.656 215.853 107.728C216.729 107.958 217.464 108.514 217.922 109.296C218.378 110.075 218.504 110.985 218.274 111.861L191.11 215.995H208.195L239.408 96.3326H28.0162L63.6023 124.016L67.2235 110.153Z" fill="#FFC061"/>
<path d="M216.829 222.768H168.663C163.891 222.768 160.008 226.651 160.008 231.423V243.464C160.008 248.236 163.89 252.119 168.663 252.119H216.829C221.601 252.119 225.483 248.237 225.483 243.464V231.423C225.483 226.651 221.601 222.768 216.829 222.768ZM178.07 237.444C178.07 238.336 177.709 239.207 177.069 239.841C176.454 240.461 175.563 240.831 174.683 240.831C173.804 240.831 172.911 240.461 172.286 239.829C171.657 239.206 171.296 238.336 171.296 237.444C171.296 236.564 171.666 235.672 172.298 235.046C172.912 234.427 173.804 234.057 174.683 234.057C175.563 234.057 176.456 234.427 177.081 235.058C177.7 235.673 178.07 236.564 178.07 237.444Z" fill="#736F7B"/>
<path d="M90.3927 174.603C55.7418 174.603 27.5513 202.793 27.5513 237.444C27.5513 272.095 55.7418 300.285 90.3927 300.285C125.044 300.285 153.234 272.095 153.234 237.444C153.234 202.793 125.044 174.603 90.3927 174.603ZM90.3927 282.977C65.2864 282.977 44.861 262.551 44.861 237.445C44.861 212.338 65.2864 191.913 90.3927 191.913C115.499 191.913 135.924 212.338 135.924 237.445C135.924 262.551 115.499 282.977 90.3927 282.977Z" fill="#625D6B"/>
<path d="M90.3929 198.686C69.0211 198.686 51.6341 216.073 51.6341 237.445C51.6341 258.817 69.0211 276.204 90.3929 276.204C111.765 276.204 129.152 258.817 129.152 237.445C129.152 216.073 111.764 198.686 90.3929 198.686ZM111.842 237.444C111.842 249.272 102.22 258.894 90.3929 258.894C78.5657 258.894 68.9438 249.272 68.9438 237.444C68.9438 225.617 78.5657 215.995 90.3929 215.995C91.8186 215.995 93.0354 216.882 93.5341 218.132C101.812 219.474 108.364 226.026 109.705 234.303C110.954 234.803 111.842 236.02 111.842 237.444Z" fill="#FFC061"/>
<path d="M93.5339 218.132C92.5102 217.967 91.4623 217.877 90.3927 217.877C79.6036 217.877 70.8252 226.655 70.8252 237.444C70.8252 248.234 79.6036 257.012 90.3927 257.012C101.182 257.012 109.96 248.234 109.96 237.444C109.96 236.375 109.871 235.327 109.705 234.303C108.363 226.026 101.812 219.475 93.5339 218.132Z" fill="#E0931F"/>
<path d="M298.195 218.023C297.426 217.93 296.645 217.878 295.851 217.878C285.062 217.878 276.284 226.656 276.284 237.445C276.284 248.234 285.062 257.013 295.851 257.013C306.64 257.013 315.419 248.234 315.419 237.445C315.419 236.543 315.352 235.656 315.234 234.786C314.036 226.016 307.008 219.081 298.195 218.023Z" fill="#E0931F"/>
<path d="M371.111 184.292V159.063L369.513 152.401H338.749C343.641 175.732 337.905 185.515 337.905 185.515L352.956 200.567C363.868 199.814 371.111 200.567 371.111 200.567V184.292Z" fill="#E0931F"/>
<path d="M325.463 122.147H344.109L342.209 118.162L342.146 118.04L342.16 118.059C339.082 110.857 329.703 100.432 314.439 104.808C318.728 110.184 323.652 116.014 325.463 122.147Z" fill="#E0931F"/>
<path d="M338.549 153.867C338.489 153.417 338.443 153.105 338.415 152.966C336.093 141.617 331.356 130.819 323.863 121.941L286.067 121.345V145.428C285.872 157.263 339.096 158.031 338.549 153.867Z" fill="#736F7B"/>
<path d="M385.034 207.341V225.403C385.034 231.838 379.803 237.068 373.369 237.068H367.348C367.22 237.068 367.091 237.061 366.964 237.046C366.964 237.181 366.971 237.309 366.971 237.444C366.971 277.076 334.73 309.317 295.098 309.317C262.744 309.317 235.313 287.823 226.334 258.367C223.587 260.128 220.328 261.151 216.828 261.151H168.662C165.163 261.151 161.904 260.128 159.157 258.367C150.178 287.824 122.746 309.317 90.3919 309.317C50.7602 309.317 18.5189 277.076 18.5189 237.444C18.5189 197.813 50.7602 165.572 90.3919 165.572C95.0428 165.572 99.5887 166.023 103.991 166.866L16.2092 98.5906H6.10208C2.98641 98.5906 0.457367 96.0616 0.457367 92.9459C0.457367 89.8303 2.98641 87.3012 6.10208 87.3012H239.482C241.89 80.1513 248.604 75.2599 256.235 75.2599H343.265C346.381 75.2599 348.91 77.789 348.91 80.9046C348.91 84.0203 346.381 86.5494 343.265 86.5494H256.234C253.329 86.5494 250.778 88.5135 250.048 91.328L233.822 153.53H253.33V117.029C253.33 107.276 261.262 99.3433 271.016 99.3433H323.607C333.993 99.3433 343.762 104.875 349.098 113.778L374.776 156.571C377.546 161.192 379.013 166.483 379.013 171.864V197.144C382.603 199.13 385.034 202.954 385.034 207.341ZM373.745 225.403V207.341C373.745 207.13 373.58 206.965 373.369 206.965H360.176C362.968 212.895 364.97 219.262 366.046 225.937C366.467 225.84 366.896 225.779 367.348 225.779H373.369C373.579 225.779 373.745 225.614 373.745 225.403ZM367.724 195.676V171.864C367.724 168.522 366.814 165.241 365.097 162.381L362.824 158.588C362.343 158.723 361.846 158.799 361.327 158.799H295.098C285.345 158.799 277.412 150.866 277.412 141.113V123.05C277.412 119.935 279.941 117.406 283.057 117.406H337.876C334.407 113.176 329.154 110.632 323.607 110.632H271.016C267.486 110.632 264.618 113.499 264.618 117.029V172.368C273.875 168.01 284.209 165.572 295.098 165.572C319.264 165.572 340.683 177.56 353.718 195.909C354.222 195.758 354.757 195.675 355.306 195.675H367.724V195.676ZM356.172 147.51L344.762 128.485C344.281 128.62 343.783 128.696 343.264 128.696H288.702V141.113C288.702 144.643 291.569 147.511 295.099 147.511H356.172V147.51ZM355.683 237.444C355.683 204.037 328.506 176.86 295.098 176.86C261.691 176.86 234.514 204.037 234.514 237.444C234.514 270.852 261.691 298.029 295.098 298.029C328.506 298.029 355.683 270.852 355.683 237.444ZM253.563 178.825C253.412 178.321 253.329 177.786 253.329 177.237V164.82H230.872L218.1 213.791C221.119 214.002 223.925 214.98 226.334 216.523C231.023 201.14 240.739 187.932 253.563 178.825ZM206.451 213.738L236.487 98.5914H34.5953L62.2833 120.131L65.0376 109.587C65.8203 106.569 68.9059 104.763 71.924 105.546C74.942 106.336 76.7484 109.422 75.9575 112.432L71.984 127.673L82.3098 135.703L89.121 109.588C89.9036 106.57 92.9893 104.763 96.0073 105.547C99.0253 106.337 100.832 109.423 100.041 112.433L92.1916 142.537C92.1315 142.77 92.0414 142.988 91.9505 143.207L102.329 151.275L113.204 109.589C113.986 106.571 117.072 104.764 120.09 105.548C123.108 106.338 124.914 109.423 124.123 112.434L112.03 158.817L122.348 166.847L137.287 109.589C138.07 106.571 141.155 104.765 144.173 105.548C147.191 106.339 148.998 109.424 148.207 112.435L132.049 174.388L142.367 182.419L161.369 109.59C162.152 106.572 165.238 104.766 168.256 105.549C171.274 106.339 173.08 109.425 172.289 112.435L152.067 189.961L162.385 197.991L185.452 109.591C186.235 106.573 189.32 104.766 192.338 105.55C195.356 106.34 197.163 109.426 196.372 112.436L172.086 205.532L182.412 213.562L209.535 109.592C210.318 106.574 213.404 104.767 216.422 105.551C219.44 106.341 221.246 109.426 220.455 112.437L194.031 213.743H206.451V213.738ZM223.225 243.465V231.424C223.225 227.895 220.358 225.027 216.828 225.027H210.807H186.746C186.739 225.027 186.731 225.027 186.724 225.027C186.716 225.027 186.709 225.027 186.701 225.027H180.703H168.661C165.132 225.027 162.264 227.894 162.264 231.424V243.465C162.264 246.995 165.131 249.863 168.661 249.863H216.827C220.358 249.863 223.225 246.995 223.225 243.465ZM164.801 214.167L155.432 206.874C156.892 209.975 158.141 213.196 159.157 216.523C160.865 215.431 162.77 214.619 164.801 214.167ZM150.976 237.444C150.976 204.037 123.8 176.86 90.3919 176.86C56.9841 176.86 29.8076 204.037 29.8076 237.444C29.8076 270.852 56.9841 298.029 90.3919 298.029C123.8 298.029 150.976 270.852 150.976 237.444ZM295.098 189.655C321.447 189.655 342.888 211.096 342.888 237.444C342.888 263.792 321.446 285.234 295.098 285.234C268.75 285.234 247.309 263.792 247.309 237.444C247.309 211.096 268.75 189.655 295.098 189.655ZM331.599 237.444C331.599 217.32 315.223 200.944 295.098 200.944C274.974 200.944 258.597 217.32 258.597 237.444C258.597 257.569 274.974 273.945 295.098 273.945C315.223 273.945 331.599 257.569 331.599 237.444ZM307.516 237.444C307.516 244.293 301.947 249.862 295.098 249.862C288.25 249.862 282.681 244.293 282.681 237.444C282.681 230.596 288.25 225.027 295.098 225.027C298.214 225.027 300.743 222.498 300.743 219.382C300.743 216.266 298.214 213.737 295.098 213.737C282.026 213.737 271.391 224.372 271.391 237.444C271.391 250.517 282.026 261.151 295.098 261.151C308.171 261.151 318.805 250.517 318.805 237.444C318.805 234.329 316.276 231.8 313.161 231.8C310.045 231.8 307.516 234.329 307.516 237.444ZM174.683 231.8C173.2 231.8 171.74 232.403 170.695 233.456C169.641 234.502 169.039 235.962 169.039 237.444C169.039 238.935 169.642 240.387 170.695 241.433C171.741 242.487 173.201 243.088 174.683 243.088C176.165 243.088 177.626 242.486 178.672 241.433C179.725 240.387 180.327 238.934 180.327 237.444C180.327 235.962 179.725 234.502 178.672 233.456C177.626 232.402 176.166 231.8 174.683 231.8ZM90.3926 189.655C116.741 189.655 138.182 211.096 138.182 237.444C138.182 263.792 116.741 285.234 90.3926 285.234C64.0447 285.234 42.603 263.793 42.603 237.444C42.603 211.096 64.0439 189.655 90.3926 189.655ZM126.894 237.444C126.894 217.32 110.517 200.944 90.3926 200.944C70.2685 200.944 53.8917 217.32 53.8917 237.444C53.8917 257.569 70.2685 273.945 90.3926 273.945C110.517 273.945 126.894 257.569 126.894 237.444ZM102.81 237.444C102.81 244.293 97.2414 249.862 90.3926 249.862C83.5439 249.862 77.975 244.293 77.975 237.444C77.975 230.596 83.5439 225.027 90.3926 225.027C93.5083 225.027 96.0373 222.498 96.0373 219.382C96.0373 216.266 93.5083 213.737 90.3926 213.737C77.32 213.737 66.6856 224.372 66.6856 237.444C66.6856 250.517 77.32 261.151 90.3926 261.151C103.465 261.151 114.1 250.517 114.1 237.444C114.1 234.329 111.571 231.8 108.455 231.8C105.339 231.8 102.81 234.329 102.81 237.444Z" fill="#525252"/>
</g>
<defs>
<clipPath id="clip0_1_467">
<rect width="384.576" height="384.576" fill="white" transform="translate(0.457275 0.000488281)"/>
</clipPath>
</defs>
</svg>
